<?xml version="1.0" encoding="UTF-8" standalone="no"?> <svg width="48" height="48" viewBox="0 0 48 48" fill="none" xmlns="http://www.w3.org/2000/svg">
<path fill-rule="evenodd" clip-rule="evenodd" d="M0 24C0 37.2548 10.7452 48 24 48C37.2548 48 48 37.2548 48 24C48 10.7452 37.2548 0 24 0C10.7452 0 0 10.7452 0 24ZM28.7865 14.304C32.0601 15.4316 34.4542 17.122 33.9838 20.2663C33.6433 22.5681 32.3673 23.6825 30.6732 24.0731C32.9994 25.2842 34.1831 27.1414 33.0555 30.3611C31.6561 34.3599 28.3316 34.6974 23.9104 33.8607L22.8374 38.1607L20.2447 37.5146L21.3036 33.2721C20.6316 33.1052 19.9449 32.928 19.2374 32.736L18.1748 36.9984L15.585 36.3522L16.658 32.0441C16.4159 31.9821 16.1723 31.9185 15.927 31.8546C15.5586 31.7585 15.1864 31.6614 14.8096 31.567L11.4356 30.7259L12.7227 27.758C12.7227 27.758 14.6331 28.2661 14.6073 28.2284C15.3413 28.4101 15.667 27.9316 15.7954 27.6126L17.491 20.815C17.5546 20.8303 17.6169 20.8459 17.677 20.861C17.7069 20.8685 17.7362 20.8758 17.7649 20.883C17.6615 20.8416 17.5678 20.815 17.4954 20.7966L18.705 15.9441C18.7367 15.3932 18.547 14.6983 17.4969 14.4362C17.5375 14.4089 15.6138 13.968 15.6138 13.968L16.3035 11.1988L19.8791 12.0916L19.8762 12.1049C20.4138 12.2385 20.9676 12.3655 21.5318 12.494L22.5945 8.23606L25.1857 8.88221L24.1445 13.0567C24.8401 13.2155 25.5402 13.3758 26.2218 13.5456L27.2556 9.3984L29.8484 10.0446L28.7865 14.304Z" fill="black"/>
<path d="M28.7221 19.9065C28.033 22.6965 23.7797 21.279 22.4 20.9315L23.6168 16C24.9965 16.3475 29.4398 16.9961 28.7221 19.9065Z" fill="black"/>
<path d="M27.9164 28.5448C27.1215 31.6815 21.7436 29.9858 20 29.5606L21.4124 24C23.156 24.4274 28.7471 25.2734 27.9164 28.5448Z" fill="black"/>
</svg>
