<?xml version="1.0" encoding="utf-8"?>
<!-- Generator: Adobe Illustrator 23.0.3, SVG Export Plug-In . SVG Version: 6.00 Build 0)  -->
<svg version="1.1" id="Icons" xmlns="http://www.w3.org/2000/svg" xmlns:xlink="http://www.w3.org/1999/xlink" x="0px" y="0px"
	 viewBox="0 0 32 32" style="enable-background:new 0 0 32 32;" xml:space="preserve">
<style type="text/css">
	.st0{fill:none;stroke:#000000;stroke-width:2;stroke-linecap:round;stroke-linejoin:round;stroke-miterlimit:10;}
	.st1{fill:none;stroke:#000000;stroke-width:2;stroke-linejoin:round;stroke-miterlimit:10;}
</style>
<path class="st0" d="M20,17h-8c-1.1,0-2-0.9-2-2v-4c0-1.1,0.9-2,2-2h8c1.1,0,2,0.9,2,2v4C22,16.1,21.1,17,20,17z"/>
<path class="st0" d="M20,9h-8V5c0-2.2,1.8-4,4-4h0c2.2,0,4,1.8,4,4V9z"/>
<line class="st0" x1="16" y1="12" x2="16" y2="14"/>
<line class="st0" x1="16" y1="22" x2="16" y2="25"/>
<line class="st0" x1="13.1" y1="24.1" x2="16" y2="25"/>
<line class="st0" x1="14.2" y1="27.4" x2="16" y2="25"/>
<line class="st0" x1="17.8" y1="27.4" x2="16" y2="25"/>
<line class="st0" x1="18.9" y1="24.1" x2="16" y2="25"/>
<line class="st0" x1="26" y1="22" x2="26" y2="25"/>
<line class="st0" x1="23.1" y1="24.1" x2="26" y2="25"/>
<line class="st0" x1="24.2" y1="27.4" x2="26" y2="25"/>
<line class="st0" x1="27.8" y1="27.4" x2="26" y2="25"/>
<line class="st0" x1="28.9" y1="24.1" x2="26" y2="25"/>
<line class="st0" x1="6" y1="22" x2="6" y2="25"/>
<line class="st0" x1="3.1" y1="24.1" x2="6" y2="25"/>
<line class="st0" x1="4.2" y1="27.4" x2="6" y2="25"/>
<line class="st0" x1="7.8" y1="27.4" x2="6" y2="25"/>
<line class="st0" x1="8.9" y1="24.1" x2="6" y2="25"/>
</svg>
