<?xml version="1.0" encoding="utf-8"?>
<!-- Generator: Adobe Illustrator 23.0.3, SVG Export Plug-In . SVG Version: 6.00 Build 0)  -->
<svg version="1.1" id="Icons" xmlns="http://www.w3.org/2000/svg" xmlns:xlink="http://www.w3.org/1999/xlink" x="0px" y="0px"
	 viewBox="0 0 32 32" style="enable-background:new 0 0 32 32;" xml:space="preserve">
<style type="text/css">
	.st0{fill:none;stroke:#000000;stroke-width:2;stroke-linecap:round;stroke-linejoin:round;stroke-miterlimit:10;}
	
		.st1{fill:none;stroke:#000000;stroke-width:2;stroke-linecap:round;stroke-linejoin:round;stroke-miterlimit:10;stroke-dasharray:3;}
	.st2{fill:none;stroke:#000000;stroke-width:2;stroke-linejoin:round;stroke-miterlimit:10;}
	.st3{fill:none;}
</style>
<g>
	<path class="st0" d="M3,8c0-1.7,1.3-3,3-3h4"/>
	<path class="st0" d="M19,19L19,19c0-2.2,1.8-4,4-4h4c1.1,0,2-0.9,2-2v0c0-1.1-0.9-2-2-2H6c-1.7,0-3-1.4-3-3v16c0,1.6,1.3,3,3,3h21
		c1.1,0,2-0.9,2-2v0c0-1.1-0.9-2-2-2h-4C20.8,23,19,21.2,19,19z"/>
</g>
<polyline class="st0" points="11,8 24,3 26,8 7,8 "/>
<line class="st0" x1="23" y1="19" x2="25" y2="19"/>
<line class="st0" x1="29" y1="13" x2="29" y2="25"/>
<rect x="-360" y="-216" class="st3" width="536" height="680"/>
</svg>
